# xmcd CD database file
#
# Track frame offsets:
#	182
#	16332
#	32385
#	48082
#	63062
#	78775
#	94040
#	109390
#	123345
#	139312
#	155025
#	177445
#	190347
#	201960
#	215700
#	231495
#
# Disc length: 3276 seconds
#
# Revision: 0
# Processed by: cddbd v1.4PL0 Copyright (c) Steve Scherf et al.
# Submitted via: CDex 1.50
#
DISCID=dd0cca10
DTITLE=Glenn Miller - Glenn Miller
DYEAR=1900
DGENRE=Jazz
TTITLE0=In the mood
TTITLE1=Moonllight serenade
TTITLE2=Chattanooga choo choo
TTITLE3=Pensylvania
TTITLE4=Serenade in blue
TTITLE5=String of pearls
TTITLE6=American patrol
TTITLE7=St Louis blues march
TTITLE8=Tuxedo junctions
TTITLE9=Song of the Volga boatman
TTITLE10=Anvil Chorus
TTITLE11=Johnson rag
TTITLE12=Sun Valley jump
TTITLE13=I know why
TTITLE14=Stardust
TTITLE15=My melancholy baby
EXTD=
EXTT0=
EXTT1=
EXTT2=
EXTT3=
EXTT4=
EXTT5=
EXTT6=
EXTT7=
EXTT8=
EXTT9=
EXTT10=
EXTT11=
EXTT12=
EXTT13=
EXTT14=
EXTT15=
PLAYORDER=
